<svg width="28" height="28" viewBox="0 0 28 28" fill="none" xmlns="http://www.w3.org/2000/svg">
<path fill-rule="evenodd" clip-rule="evenodd" d="M14 21.6365C18.2174 21.6365 21.6363 18.2176 21.6363 14.0001C21.6363 9.78268 18.2174 6.36377 14 6.36377C9.7825 6.36377 6.36359 9.78268 6.36359 14.0001C6.36359 18.2176 9.7825 21.6365 14 21.6365ZM14 19.091C16.8115 19.091 19.0909 16.8117 19.0909 14.0001C19.0909 11.1885 16.8115 8.90922 14 8.90922C11.1883 8.90922 8.90904 11.1885 8.90904 14.0001C8.90904 16.8117 11.1883 19.091 14 19.091Z" fill="white"/>
<path d="M21.6364 5.09082C20.9334 5.09082 20.3636 5.66065 20.3636 6.36355C20.3636 7.06645 20.9334 7.63627 21.6364 7.63627C22.3393 7.63627 22.9091 7.06645 22.9091 6.36355C22.9091 5.66065 22.3393 5.09082 21.6364 5.09082Z" fill="white"/>
<path fill-rule="evenodd" clip-rule="evenodd" d="M0.832313 4.16953C0 5.80304 0 7.94142 0 12.2182V15.7818C0 20.0586 0 22.197 0.832313 23.8304C1.56444 25.2673 2.73265 26.4356 4.16953 27.1676C5.80304 28 7.94142 28 12.2182 28H15.7818C20.0586 28 22.197 28 23.8304 27.1676C25.2673 26.4356 26.4356 25.2673 27.1676 23.8304C28 22.197 28 20.0586 28 15.7818V12.2182C28 7.94142 28 5.80304 27.1676 4.16953C26.4356 2.73265 25.2673 1.56444 23.8304 0.832313C22.197 0 20.0586 0 15.7818 0H12.2182C7.94142 0 5.80304 0 4.16953 0.832313C2.73265 1.56444 1.56444 2.73265 0.832313 4.16953ZM15.7818 2.54545H12.2182C10.0378 2.54545 8.55559 2.54744 7.40992 2.64104C6.29394 2.73221 5.72325 2.89748 5.32514 3.10033C4.36722 3.58842 3.58842 4.36722 3.10033 5.32514C2.89748 5.72325 2.73221 6.29394 2.64104 7.40992C2.54744 8.55559 2.54545 10.0378 2.54545 12.2182V15.7818C2.54545 17.9623 2.54744 19.4443 2.64104 20.5901C2.73221 21.7061 2.89748 22.2768 3.10033 22.6749C3.58842 23.6328 4.36722 24.4115 5.32514 24.8996C5.72325 25.1025 6.29394 25.2678 7.40992 25.359C8.55559 25.4525 10.0378 25.4545 12.2182 25.4545H15.7818C17.9623 25.4545 19.4443 25.4525 20.5901 25.359C21.7061 25.2678 22.2768 25.1025 22.6749 24.8996C23.6328 24.4115 24.4115 23.6328 24.8996 22.6749C25.1025 22.2768 25.2678 21.7061 25.359 20.5901C25.4525 19.4443 25.4545 17.9623 25.4545 15.7818V12.2182C25.4545 10.0378 25.4525 8.55559 25.359 7.40992C25.2678 6.29394 25.1025 5.72325 24.8996 5.32514C24.4115 4.36722 23.6328 3.58842 22.6749 3.10033C22.2768 2.89748 21.7061 2.73221 20.5901 2.64104C19.4443 2.54744 17.9623 2.54545 15.7818 2.54545Z" fill="white"/>
</svg>
