<svg width="20" height="20" viewBox="0 0 20 20" fill="none" xmlns="http://www.w3.org/2000/svg">
<path d="M10.4099 0.643066C11.4331 0.627441 12.4487 0.635566 13.4637 0.627441C13.4974 1.89682 14.0124 3.03932 14.8318 3.88557L14.8306 3.88432C15.7124 4.67869 16.8599 5.19369 18.1249 5.28119L18.1424 5.28244V8.42994C16.9474 8.39994 15.8237 8.12432 14.8106 7.65057L14.8618 7.67182C14.3718 7.43619 13.9574 7.19432 13.5637 6.92432L13.5962 6.94557C13.5887 9.22619 13.6037 11.5068 13.5806 13.7793C13.5162 14.9374 13.1312 15.9937 12.5137 16.8756L12.5262 16.8562C11.4937 18.3349 9.82119 19.3056 7.91932 19.3631H7.91057C7.83369 19.3668 7.74307 19.3687 7.65182 19.3687C6.57057 19.3687 5.55994 19.0674 4.69869 18.5443L4.72369 18.5587C3.15619 17.6156 2.07494 16.0018 1.87494 14.1249L1.87244 14.0993C1.85682 13.7087 1.84932 13.3181 1.86494 12.9356C2.17119 9.94869 4.67369 7.63807 7.71557 7.63807C8.05744 7.63807 8.39244 7.66744 8.71807 7.72307L8.68307 7.71807C8.69869 8.87369 8.65182 10.0299 8.65182 11.1856C8.38744 11.0899 8.08244 11.0343 7.76432 11.0343C6.59682 11.0343 5.60369 11.7806 5.23619 12.8224L5.23057 12.8412C5.14744 13.1081 5.09932 13.4149 5.09932 13.7324C5.09932 13.8612 5.10744 13.9887 5.12244 14.1137L5.12119 14.0987C5.32869 15.3774 6.42494 16.3424 7.74682 16.3424C7.78494 16.3424 7.82244 16.3418 7.85994 16.3399H7.85432C8.76869 16.3124 9.56244 15.8206 10.0112 15.0937L10.0174 15.0824C10.1843 14.8499 10.2987 14.5687 10.3368 14.2631L10.3374 14.2543C10.4156 12.8562 10.3843 11.4662 10.3918 10.0681C10.3993 6.92057 10.3843 3.78057 10.4074 0.641191L10.4099 0.643066Z" fill="black"/>
</svg>
